<svg viewBox="0 0 180 180" fill="none" xmlns="http://www.w3.org/2000/svg"><g clip-path="url(#a)"><path d="M90 22.5A67.5 67.5 0 0 0 22.5 90v45A22.501 22.501 0 0 0 45 157.5h10.365a15 15 0 0 0 13.417-8.295l1.313-2.625a49.514 49.514 0 0 1-6.78-5.7C55.073 132.585 48.75 120.405 48.75 105c0-5.513.93-10.995 2.617-16.177.75-2.303 2.828-2.573 4.883-2.573 12.675 0 23.888-6.293 30.683-15.938a3.75 3.75 0 0 1 6.134 0A37.446 37.446 0 0 0 123.75 86.25c2.055 0 4.14.27 4.882 2.573A52.49 52.49 0 0 1 131.25 105c0 15.412-6.323 27.585-14.565 35.88a49.303 49.303 0 0 1-6.78 5.7l1.313 2.625a14.998 14.998 0 0 0 13.417 8.295H135a22.504 22.504 0 0 0 22.5-22.5V90A67.503 67.503 0 0 0 90 22.5Z" fill="#5c5c5c"/></g><defs><clipPath id="a"><path fill="#fff" d="M0 0h180v180H0z"/></clipPath></defs></svg>