<svg width="320" height="54" viewBox="0 0 320 54" fill="none" xmlns="http://www.w3.org/2000/svg">
<path d="M105.584 9.47838V14.6515H96.3189V42.3984H90.9106V14.6515H81.599V9.47838H105.584ZM111.256 22.8345C112.541 19.9187 114.955 18.4608 118.498 18.4608V23.9632C116.554 23.8378 114.861 24.3081 113.419 25.374C111.977 26.4087 111.256 28.133 111.256 30.5472V42.3984H106.177V18.8841H111.256V22.8345ZM138.099 18.8841H143.178V42.3984H138.099V39.3885C136.563 41.8027 134.133 43.0097 130.81 43.0097C128.114 43.0097 125.935 42.1476 124.273 40.4232C122.611 38.6988 121.78 36.3317 121.78 33.3219V18.8841H126.86V32.8045C126.86 34.5603 127.33 35.9084 128.27 36.849C129.211 37.7896 130.496 38.2599 132.127 38.2599C133.914 38.2599 135.356 37.7112 136.453 36.6139C137.551 35.4852 138.099 33.7765 138.099 31.4877V18.8841ZM153.115 32.8045C153.491 34.5916 154.354 35.9711 155.702 36.9431C157.05 37.8836 158.696 38.3539 160.64 38.3539C163.336 38.3539 165.358 37.382 166.706 35.4381L170.892 37.8836C168.572 41.301 165.139 43.0097 160.593 43.0097C156.768 43.0097 153.679 41.8497 151.328 39.5296C148.977 37.1782 147.801 34.2154 147.801 30.6412C147.801 27.1298 148.961 24.1983 151.281 21.8469C153.601 19.4641 156.58 18.2727 160.216 18.2727C163.665 18.2727 166.487 19.4798 168.682 21.8939C170.908 24.3081 172.021 27.2395 172.021 30.6883C172.021 31.2213 171.958 31.9267 171.832 32.8045H153.115ZM153.068 28.666H166.894C166.55 26.7535 165.75 25.3113 164.496 24.3394C163.273 23.3675 161.831 22.8815 160.169 22.8815C158.288 22.8815 156.721 23.3988 155.467 24.4335C154.212 25.4681 153.413 26.8789 153.068 28.666Z" fill="white"/>
<path d="M197.888 9.47838H200.239V42.3984H197.888V36.9431C196.916 38.7929 195.536 40.2507 193.749 41.3167C191.994 42.3827 190.003 42.9157 187.777 42.9157C184.391 42.9157 181.506 41.74 179.123 39.3885C176.772 37.0058 175.596 34.09 175.596 30.6412C175.596 27.1925 176.772 24.2924 179.123 21.9409C181.506 19.5582 184.391 18.3668 187.777 18.3668C190.003 18.3668 191.994 18.8998 193.749 19.9657C195.536 21.0317 196.916 22.4896 197.888 24.3394V9.47838ZM180.816 37.7425C182.76 39.6864 185.127 40.6583 187.918 40.6583C190.708 40.6583 193.06 39.6864 194.972 37.7425C196.916 35.7987 197.888 33.4316 197.888 30.6412C197.888 27.8509 196.916 25.4838 194.972 23.5399C193.06 21.5961 190.708 20.6241 187.918 20.6241C185.127 20.6241 182.76 21.5961 180.816 23.5399C178.904 25.4838 177.948 27.8509 177.948 30.6412C177.948 33.4316 178.904 35.7987 180.816 37.7425ZM228.152 18.8841H230.551V42.3984H228.152V37.0841C227.149 38.9026 225.769 40.3291 224.014 41.3637C222.258 42.3984 220.267 42.9157 218.041 42.9157C214.686 42.9157 211.818 41.74 209.435 39.3885C207.052 37.0058 205.861 34.09 205.861 30.6412C205.861 27.1925 207.052 24.2924 209.435 21.9409C211.818 19.5582 214.686 18.3668 218.041 18.3668C220.267 18.3668 222.258 18.8841 224.014 19.9187C225.769 20.9533 227.149 22.3799 228.152 24.1983V18.8841ZM211.128 37.7425C213.072 39.6864 215.439 40.6583 218.229 40.6583C221.019 40.6583 223.371 39.6864 225.283 37.7425C227.196 35.7987 228.152 33.4316 228.152 30.6412C228.152 27.8509 227.196 25.4838 225.283 23.5399C223.371 21.5961 221.019 20.6241 218.229 20.6241C215.439 20.6241 213.072 21.5961 211.128 23.5399C209.215 25.4838 208.259 27.8509 208.259 30.6412C208.259 33.4316 209.215 35.7987 211.128 37.7425ZM249.81 21.1885H242.803V36.4728C242.803 37.8209 243.054 38.7929 243.555 39.3885C244.057 39.9842 244.825 40.3291 245.86 40.4232C246.894 40.4859 248.211 40.4389 249.81 40.2821V42.3984C246.644 42.8687 244.277 42.6492 242.709 41.74C241.173 40.8308 240.405 39.075 240.405 36.4728V21.1885H235.231V18.8841H240.405V13.0055L242.803 12.3001V18.8841H249.81V21.1885ZM264.61 18.3668C268.059 18.3668 270.849 19.5895 272.981 22.035C275.145 24.4805 276.226 27.3806 276.226 30.7353C276.226 30.8607 276.211 31.0488 276.179 31.2996C276.179 31.5505 276.179 31.7386 276.179 31.864H254.875C255.158 34.4976 256.208 36.6295 258.026 38.2599C259.876 39.8588 262.149 40.6583 264.845 40.6583C266.727 40.6583 268.373 40.2664 269.783 39.4826C271.194 38.6988 272.26 37.6642 272.981 36.3787L275.051 37.6015C274.079 39.2318 272.699 40.5329 270.912 41.5048C269.125 42.4454 267.087 42.9157 264.798 42.9157C261.193 42.9157 258.23 41.7713 255.91 39.4826C253.59 37.1625 252.43 34.2154 252.43 30.6412C252.43 27.1298 253.559 24.214 255.816 21.8939C258.105 19.5425 261.036 18.3668 264.61 18.3668ZM264.61 20.6241C261.945 20.6241 259.719 21.455 257.932 23.1167C256.145 24.7783 255.126 26.926 254.875 29.5596H273.781C273.53 26.7692 272.527 24.5902 270.771 23.0226C269.047 21.4236 266.993 20.6241 264.61 20.6241ZM282.403 25.0448C282.403 26.2049 282.889 27.1141 283.861 27.7725C284.833 28.4309 286.024 28.9325 287.435 29.2774C288.846 29.5909 290.241 29.9515 291.62 30.3591C293.031 30.7666 294.223 31.4564 295.195 32.4283C296.167 33.3689 296.653 34.6387 296.653 36.2376C296.653 38.1815 295.869 39.7805 294.301 41.0345C292.765 42.2886 290.743 42.9157 288.234 42.9157C285.977 42.9157 284.065 42.4454 282.497 41.5048C280.961 40.5329 279.895 39.2631 279.299 37.6955L281.321 36.5198C281.76 37.8053 282.575 38.8242 283.767 39.5767C284.989 40.2978 286.479 40.6583 288.234 40.6583C289.99 40.6583 291.432 40.2821 292.561 39.5296C293.721 38.7458 294.301 37.6485 294.301 36.2376C294.301 35.0776 293.815 34.1527 292.843 33.4629C291.871 32.7732 290.68 32.2716 289.269 31.958C287.858 31.6132 286.447 31.2369 285.036 30.8293C283.657 30.4218 282.481 29.7477 281.509 28.8071C280.537 27.8665 280.051 26.6125 280.051 25.0448C280.051 23.1637 280.788 21.5804 282.262 20.2949C283.767 19.0095 285.695 18.3668 288.046 18.3668C289.927 18.3668 291.558 18.79 292.937 19.6365C294.348 20.4831 295.383 21.6274 296.041 23.0696L294.066 24.1983C293.596 23.0383 292.812 22.1604 291.715 21.5647C290.617 20.9377 289.394 20.6241 288.046 20.6241C286.447 20.6241 285.099 21.0317 284.002 21.8469C282.936 22.6307 282.403 23.6967 282.403 25.0448Z" fill="#FF0642"/>
<path d="M42.0618 28.0031C43.7397 27.6266 45.6309 26.9532 47.3347 25.7932C47.3347 25.7932 53.5115 25.1992 56.2894 23.2815C57.8104 23.5759 59.3648 23.8132 60.9142 23.8576C59.2047 27.4466 52.3669 30.7814 48.3616 29.4172C45.2837 28.352 42.0618 28.0031 42.0618 28.0031Z" fill="#400505"/>
<path d="M56.3149 23.4047C55.9831 23.6354 55.5458 23.8441 55.1086 24.0528C52.0813 25.4565 47.3518 25.9275 47.3518 25.9275C45.6465 27.0927 43.7535 27.7691 42.0741 28.1473C39.0984 28.8551 36.7042 28.6349 36.7042 28.6349C32.419 31.3825 25.9177 31.3775 25.9177 31.3775C25.0508 32.5245 22.5972 33.1484 20.9846 33.4121C20.0922 33.5902 19.511 33.6405 19.511 33.6405C23.4851 30.1428 24.1341 26.4665 27.0506 25.725C30.3837 24.8775 33.0243 27.376 36.746 25.7957C40.4677 24.2154 42.1502 21.7394 45.3367 21.0754C47.5382 20.6132 51.722 22.4267 56.3149 23.4047Z" fill="#E0F8FF"/>
<path d="M65.5859 23.1599C65.591 23.3527 65.6089 23.5908 65.5678 23.7954C65.4376 31.2048 60.9169 38.5131 51.2025 42.1869C41.1772 45.988 34.1878 41.7892 29.8389 39.7363C24.6294 37.2704 17.4124 39.4381 13.4099 39.4813C10.8973 39.5354 8.9939 38.416 7.63506 37.644C7.58881 37.6557 7.57597 37.6104 7.57597 37.6104C6.80793 37.1741 6.20429 36.7932 5.77525 36.8533C6.52801 36.7112 7.18055 36.74 7.83308 36.7688C8.08997 36.8008 8.39312 36.8211 8.65001 36.8531C10.8773 37.0169 12.8633 36.8536 17.4212 34.9226C18.2151 34.576 18.7804 33.9475 19.3715 33.4095C19.3715 33.4095 24.4788 32.8924 25.8177 31.1459C25.8177 31.1459 32.3123 31.1509 36.593 28.4167C36.593 28.4167 38.9847 28.6359 41.9572 27.9315C41.9572 27.9315 42.8204 28.004 44.0843 28.2663C45.2429 28.5066 46.7175 28.8126 48.21 29.3566C52.2276 30.7655 59.0647 27.4322 60.7611 23.7996C60.9589 23.798 61.1567 23.7965 61.3083 23.8066C61.6577 23.8152 61.948 23.7902 62.2974 23.7987C63.6692 23.7424 64.7329 23.473 65.5859 23.1599Z" fill="#CA0334"/>
<path opacity="0.32" d="M44.2087 28.4126C41.2749 29.4553 36.6582 29.458 36.6582 29.458C34.0688 32.0782 25.8649 32.2127 25.8649 32.2127C24.4233 34.1481 18.9419 34.9593 18.9419 34.9593C13.4826 39.7325 8.15869 38.1033 7.69811 37.878C7.65179 37.8898 7.63893 37.8441 7.63893 37.8441C8.00442 37.5549 8.33644 37.3232 8.71478 37.0797C10.9459 37.245 12.9351 37.0802 17.5007 35.1312C18.296 34.7813 18.8623 34.1469 19.4543 33.6039C19.4543 33.6039 24.5702 33.082 25.9114 31.3192C25.9114 31.3192 32.4169 31.3242 36.7047 28.5644C36.7047 28.5644 39.1005 28.7857 42.0781 28.0747C42.0317 28.0865 42.9556 28.1936 44.2087 28.4126Z" fill="#220101"/>
<path opacity="0.15" d="M65.5849 23.1519C65.59 23.3448 65.608 23.583 65.5668 23.7876C65.4366 31.1993 60.9156 38.5097 51.2004 42.1846C41.1743 45.9868 34.1844 41.7867 29.8351 39.7332C24.6253 37.2667 17.4078 39.435 13.4049 39.4782C10.8921 39.5323 8.94232 38.4243 7.57054 37.6068C6.80243 37.1703 6.19875 36.7892 5.76967 36.8494C6.52249 36.7072 7.17508 36.7361 7.82766 36.7649C10.4637 36.9709 12.2698 37.0473 17.4037 34.8729C18.1977 34.5261 18.763 33.8974 19.3541 33.3593C19.2076 33.5421 16.8381 36.3754 23.9446 36.6139C31.308 36.8843 32.4565 36.739 38.8482 39.0032C45.24 41.2674 57.0513 39.3916 60.3722 32.9192C63.539 26.7771 62.8049 23.6621 63.1543 23.6706C64.4929 23.6713 64.7319 23.4652 65.5849 23.1519Z" fill="#220101"/>
<path d="M66.3679 23.1236C66.1497 23.2271 65.9315 23.3307 65.7133 23.4342C64.8611 23.7465 63.7984 24.0151 62.533 24.093C61.9991 24.1312 61.4986 24.1126 61.0109 24.1391C59.4631 24.0948 57.9103 23.8583 56.3908 23.5649C51.7606 22.6061 47.5849 20.8066 45.3876 21.2653C42.2073 21.9241 40.528 24.381 36.8136 25.9491C33.0991 27.5172 30.4636 25.038 27.1369 25.8789C24.226 26.6148 23.6424 30.4884 19.676 33.959C19.0727 34.4503 18.4694 34.9415 17.7275 35.4678C13.1117 38.5703 9.2464 37.515 6.61295 37.3096C6.61295 37.3096 7.25044 33.2772 9.29484 27.9213C9.96775 26.1058 10.846 24.1417 11.9092 22.1309C16.0486 14.2129 19.8763 11.6484 23.3618 12.4127C26.801 13.1885 29.7319 14.964 32.1168 13.2481C34.5017 11.5322 36.4999 6.18798 40.4861 6.09974C42.9502 6.05754 50.2853 9.04241 56.8628 13.7189C60.584 16.3592 64.1357 19.623 66.3679 23.1236Z" fill="#CA0334"/>
<path opacity="0.21" d="M56.3158 23.4054C55.984 23.6361 55.5467 23.8448 55.1095 24.0535C44.2803 21.1982 45.0724 21.1919 40.9055 24.0074C36.5199 26.9274 34.2926 27.2986 32.0244 26.9975C29.7561 26.6964 27.1872 25.1547 24.756 28.8458C23.3668 30.955 21.9622 32.4827 20.9847 33.4142C20.0923 33.5923 19.511 33.6426 19.511 33.6426C23.4853 30.1444 24.1342 26.4676 27.0508 25.726C30.384 24.8783 33.0247 27.3772 36.7464 25.7967C40.4682 24.2162 42.1507 21.7398 45.3373 21.0758C47.5389 20.6135 51.7228 22.4272 56.3158 23.4054Z" fill="#220101"/>
<path opacity="0.15" d="M40.4278 6.06674C36.4415 6.15498 34.4433 11.4993 32.0584 13.2152C29.6734 14.9311 26.7426 13.1556 23.3033 12.3797C19.864 11.6038 16.0235 14.1232 11.8506 22.0982C7.6521 29.9828 6.54156 37.232 6.54156 37.232C9.17503 37.4373 13.0404 38.4927 17.6561 35.3901C18.4109 34.909 19.0604 34.4061 19.6047 33.8813C23.5712 30.4106 24.1547 26.5369 27.0656 25.8011C30.3924 24.9601 33.0279 27.4394 36.7424 25.8713C40.4569 24.3032 42.1361 21.8462 45.3165 21.1874C47.56 20.717 51.7357 22.5166 56.3197 23.487C57.8392 23.7804 59.3921 24.0169 60.9398 24.0612C61.4403 24.0799 61.9742 24.0417 62.4619 24.0152C63.7736 23.9256 64.7901 23.6686 65.6423 23.3564C65.8605 23.2528 66.0787 23.1493 66.2969 23.0457C60.3108 13.4772 44.3216 6.00186 40.4278 6.06674ZM50.3298 19.4845C44.4653 17.1441 41.8548 17.3685 38.5173 20.4382C35.1798 23.5079 32.7926 23.821 27.9673 22.5244C23.1421 21.2278 20.5988 30.5813 15.8045 28.6962C9.67046 26.2787 14.4951 19.2036 14.4951 19.2036C14.6081 19.0783 14.6748 18.9646 14.7416 18.851C14.9932 18.6906 15.1523 18.5536 15.2319 18.4851C15.9688 17.7665 18.0999 14.8082 20.8235 13.5873C23.5934 12.3548 28.2385 15.6326 31.3881 14.6912C34.5249 13.7047 35.275 11.2891 36.7719 9.41052C38.2688 7.53197 41.5493 6.70267 43.8412 7.62345C46.1331 8.54422 53.8941 12.6797 55.8365 15.3341C57.7661 17.9434 56.1944 21.825 50.3298 19.4845Z" fill="#220101"/>
<path opacity="0.14" d="M21.7044 14.958C21.7044 14.958 18.2674 15.7285 15.7846 20.5458C13.3019 25.363 18.0348 24.4583 20.8323 20.5733C23.6759 16.6767 25.6024 14.0712 21.7044 14.958Z" fill="white"/>
<path opacity="0.14" d="M40.3464 9.25812C40.3464 9.25812 42.7261 6.88014 49.1446 11.4127C55.563 15.9453 53.1038 19.2563 49.3272 17.4214C45.5173 15.6429 38.411 12.6773 40.3464 9.25812Z" fill="white"/>
<path opacity="0.65" d="M49.8334 13.7977C49.7182 14.2594 48.923 14.4118 48.4782 14.2356C47.811 13.9711 47.7267 13.8482 45.5486 12.9551C42.8541 11.8076 41.7346 10.6477 43.1716 9.80461C44.0154 9.30342 46.3956 9.52057 49.008 11.9387C49.6138 12.507 49.9741 13.4258 49.8103 14.2362C49.7642 14.2478 49.8334 13.7977 49.8334 13.7977Z" fill="white"/>
<path opacity="0.65" d="M28.1892 15.642C28.1892 15.642 32.3159 16.9212 35.1654 13.8788C38.0149 10.8365 38.2644 8.4029 40.4895 8.56618C40.4895 8.56618 39.3423 8.71101 38.6387 10.2434C37.9941 11.8093 34.8281 18.2697 28.1892 15.642Z" fill="white"/>
<path opacity="0.15" d="M66.3683 23.0306C66.1498 23.1348 65.9312 23.2389 65.7127 23.3431C64.8591 23.6571 63.7948 23.9273 62.5273 24.0057C61.9926 24.0441 61.4913 24.0253 61.0028 24.052C59.4527 24.0075 57.8974 23.7695 56.3755 23.4745C51.7381 22.5102 47.5558 20.7002 45.3551 21.1615C42.1697 21.8242 40.4878 24.2953 36.7675 25.8725C33.0472 27.4497 30.4076 24.9561 27.0757 25.8019C24.1602 26.542 23.5757 30.4382 19.6031 33.9289C18.9988 34.423 18.3945 34.9171 17.6515 35.4465C13.0285 38.5669 9.15709 37.5055 6.5195 37.299C6.5195 37.299 7.158 33.2431 9.2056 27.8561C9.28735 30.0743 10.1994 32.4223 13.6853 32.9976C20.5516 34.1262 23.4074 24.9323 27.1454 24.4701C30.8834 24.0079 32.4458 26.7262 36.8501 24.5861C41.2415 22.4005 42.1161 20.2316 45.6407 20.0669C49.1653 19.9023 55.6145 23.765 58.088 22.1637C60.1501 20.8614 59.3361 16.931 56.8611 13.6168C60.5753 16.227 64.1326 19.5097 66.3683 23.0306Z" fill="#220101"/>
<path opacity="0.14" d="M58.2396 33.7818C57.1439 34.9767 55.7738 35.9027 54.2549 36.4796C52.3333 37.2066 49.5292 37.9632 47.9646 36.812C45.3586 34.9573 44.4796 31.1684 46.9781 31.6004C49.4767 32.0325 53.4506 31.5603 56.722 29.1393C59.6624 26.9469 62.4427 29.2408 58.2396 33.7818Z" fill="white"/>
<path opacity="0.65" d="M55.6243 34.0445C55.6243 34.0445 53.9616 34.8012 53.4702 32.9011C52.9788 31.001 55.374 30.7342 56.7346 29.0898C58.0952 27.4454 60.9359 28.2228 60.3771 29.9059C59.8311 31.6339 57.625 33.7807 55.6243 34.0445Z" fill="white"/>
</svg>
